<?xml version="1.0" encoding="UTF-8"?>
<svg width="1200pt" height="1200pt" version="1.1" viewBox="0 0 1200 1200" xmlns="http://www.w3.org/2000/svg">
 <g fill-rule="evenodd">
  <path d="m593.95 628.78c-7.8477 0.92969-38.805-42.16-32.371-168.68 14.16-35.68 29.961-38.383 47.883-37.215 28.379 3.6602 37.41 20.328 44.387 34.984 5.8125 70.977 1.9219 80.73-2.6953 134.09-7.543 22.156-14.859 51.961-57.203 36.816zm5.3359-568.77c24.211 108.91 63.578 245.57 60.141 243.85 115.33 14.867 154.34 25.477 192.36 40.777 0.20312 7.0391-69.234 18.492-113.48 25.18-23.195 3.5078-11.344 3.3789-69.82 17.66 11.379 23.703 10.012 48.008-4.1211 58.902l-0.54688 5.9727c16.539-0.58594 51.172-0.74609 58.215 1.0273 6.8125 3.1406 13.938 8.0977 23.891 9.4727 147.17 24.098 147.85 19.527 213.37-36.25-18.98 98.148-32.324 224.46-0.82422 245.5-61.781-6.543-158.74-71.539-182.07-77.438-17.359-4.7266-36.289-6.3555-46.133 0.82422-12.637 11.293-11.066 25.25-8.6484 40.777 11.574 34.359 73.836 334.35 113.69 480.7-162.89-3.2188-313.33-1.3281-469.99-2.4727 85.121-229.35 172.68-490.71 130.99-514.89-6.2617-4.0352-11.52-6.2891-51.902 2.4727-50.48 17.406-43.453 51.805-180.42 43.664 6.9102-46.688 20.812-165.95-6.5898-184.95 64.719-12.906 68.77 5.2891 90.621 11.121 84.625 28.598 115.75 14.844 144.17-4.1172 13.344-11.469 33.559-19.68 61.785-15.652-25.254-27.449-19.453-47.867-11.535-63.434-139.88-2.6914-181.33-19.348-186.18-30.48-9.707-16.426 110.51-32.277 180.42-57.668 31.078-121.18 44.633-165.5 62.609-240.55z"/>
  <path d="m569.56 455.55-0.10938-3.5742c13.688-2.2148 25.234-3.0625 36.223-15.066 8.5547 10.066 19.633 12.168 34.512 12.5l-0.14062 4.3945c-18.582 1.5664-28.77 0.58594-33.203 12.816-5.8555-11.879-24.371-9.0625-37.281-11.066z"/>
  <path d="m958.11 450.89 26.797-16.312c1.0469-10.16-0.12891-27.52 15.582-26.797l-0.03125-2.8398c-18.992-3.5039-16.988-9.7773-23.27-15.363l21.262-0.58203c-3.4922-110.82-10.73-309.55-1.8945-312.09 17.457 47.621 23.16 205.67 27.672 311.07l18.934 0.4375c-5.668 4.9766-4.8594 8.6055-21.406 15l0.078126 2.8281c3.668 0.84375 7.5938-0.78125 8.5156 3.8711 3.0156 48.078-9.3633 64.812-39.32 52.863l-42.234 48.496z"/>
  <path d="m998.74 469.1-0.14453-0.4375c10.906 5.6719 17.074 1.4375 23.883-1.457v0.14453c-9.4805 54.297-24.23 7.7305-23.738 1.7461z"/>
  <path d="m267.81 498.08-7.5742-29.711c-17.922 0.16797-23.25-6.2734-38.445-17.477-17.664-71.855-22.781-108.22-32.039-159.61 2.5273-11.047 15.836-23.973-12.816-82.137-14.145-2.3672 3.9102 13.762 6.9922 65.242l-6.9922 6.9922c-8.543 5.6445-10.68-56.371-18.641-57.672-2.3945 20.129-5.3984 47.82 18.641 68.156l34.371 160.2c-23.754 15.07-2.0508 49.469 9.3203 69.32 29.82 193.82 52.816 373.98 79.223 560.98l13.398-1.1641c-25.438-188.54-49.051-375.27-76.312-565.64 10.695-10.484 14.762-11.652 30.875-17.477z"/>
  <path d="m489.67 1118.9 73.219-0.33984 11.535 20.594-97.934 0.33984z"/>
  <path d="m643.62 1119.4h72.496l14.004 20.594-98.035-0.82422z"/>
 </g>
</svg>
