<?xml version="1.0" encoding="utf-8"?><!-- Uploaded to: SVG Repo, www.svgrepo.com, Generator: SVG Repo Mixer Tools -->
<svg version="1.1" id="Uploaded to svgrepo.com" xmlns="http://www.w3.org/2000/svg" xmlns:xlink="http://www.w3.org/1999/xlink" 
	 width="800px" height="800px" viewBox="0 0 32 32" xml:space="preserve">
<style type="text/css">
	.feather_een{fill:#111918;}
	.st0{fill:#0B1719;}
</style>
<path class="feather_een" d="M27,6.757V3c0-0.552-0.448-1-1-1h-2c-0.552,0-1,0.448-1,1v1h-2V3c0-0.552-0.448-1-1-1h-2
	c-0.552,0-1,0.448-1,1v1h-2V3c0-0.552-0.448-1-1-1h-2c-0.552,0-1,0.448-1,1v1H9V3c0-0.552-0.448-1-1-1H6C5.448,2,5,2.448,5,3v3.757
	c0,0.796,0.316,1.559,0.879,2.121l1.034,1.034l-1.6,16.803C5.145,28.477,6.53,30,8.299,30h15.401c1.769,0,3.154-1.523,2.986-3.284
	l-1.6-16.803l1.034-1.034C26.684,8.316,27,7.553,27,6.757z M25.18,28.345C24.797,28.768,24.271,29,23.701,29H8.299
	c-0.57,0-1.096-0.232-1.48-0.655c-0.384-0.422-0.565-0.967-0.511-1.535L7.909,10h16.181l1.601,16.81
	C25.746,27.378,25.564,27.923,25.18,28.345z M26,6.757c0,0.534-0.208,1.036-0.586,1.414L24.586,9H7.414L6.586,8.172
	C6.208,7.794,6,7.292,6,6.757V3h2v2h4V3h2v2h4V3h2v2h4V3h2V6.757z M16,13c-1.105,0-2,0.895-2,2v4c0,0.552,0.448,1,1,1h2
	c0.552,0,1-0.448,1-1v-4C18,13.895,17.105,13,16,13z M17,19h-2v-4c0-0.551,0.449-1,1-1s1,0.449,1,1V19z"/>
</svg>